<?xml version="1.0" standalone="no"?>
<!DOCTYPE svg PUBLIC "-//W3C//DTD SVG 20010904//EN"
 "http://www.w3.org/TR/2001/REC-SVG-20010904/DTD/svg10.dtd">
<svg version="1.0" xmlns="http://www.w3.org/2000/svg"
 width="30pt" height="30pt" viewBox="0 0 587.000000 444.000000"
 preserveAspectRatio="xMidYMid meet">

<g transform="translate(0.000000,444.000000) scale(0.100000,-0.100000)"
fill="#1C90ED" stroke="none">
<path d="M2828 4201 c-26 -15 -56 -35 -66 -44 -10 -9 -23 -17 -29 -17 -5 0
-22 -11 -36 -24 -14 -13 -28 -22 -31 -19 -3 3 -17 -4 -32 -16 -15 -11 -33 -21
-41 -21 -8 0 -24 -10 -37 -22 -12 -13 -72 -48 -132 -78 -60 -30 -130 -72 -155
-93 -49 -40 -92 -67 -145 -92 -30 -14 -31 -16 -37 -97 -4 -46 -7 -170 -7 -275
l0 -193 -100 -50 c-55 -28 -100 -55 -100 -61 0 -5 -5 -7 -10 -4 -5 3 -10 1
-10 -5 0 -6 -4 -9 -9 -5 -5 3 -12 1 -16 -5 -3 -5 -16 -11 -28 -11 -17 -1 -15
-3 8 -8 21 -6 34 -3 42 7 7 9 15 13 17 11 3 -3 8 -104 12 -224 l7 -220 -32
-18 -31 -18 0 123 c-1 127 -15 317 -26 327 -3 3 -43 6 -88 5 -82 0 -84 -1
-155 -48 -39 -26 -69 -51 -66 -56 4 -6 -1 -7 -11 -3 -12 4 -15 3 -10 -5 4 -7
1 -12 -6 -12 -7 0 -30 -11 -51 -25 -20 -14 -37 -23 -37 -20 0 3 -23 -6 -51
-21 -28 -14 -48 -28 -45 -32 4 -3 12 0 18 6 7 7 17 12 22 12 6 0 0 -7 -12 -16
-12 -8 -27 -12 -32 -9 -14 9 -231 -116 -223 -128 3 -6 1 -7 -6 -3 -6 4 -24 -6
-42 -23 l-31 -31 6 -363 c8 -489 4 -444 39 -457 16 -5 33 -8 36 -5 9 5 10 1
17 -71 5 -41 2 -54 -11 -65 -73 -59 -75 -63 -75 -142 0 -59 4 -80 20 -99 24
-31 16 -42 -16 -21 -14 9 -24 11 -24 5 0 -6 5 -14 10 -17 6 -3 10 -12 10 -18
0 -7 -12 2 -26 18 -14 17 -30 29 -35 28 -5 -2 -9 1 -9 6 0 5 -12 12 -28 17
-15 4 -29 8 -32 9 -94 28 -86 29 -167 -15 -42 -23 -91 -53 -108 -68 -18 -15
-40 -32 -51 -38 -20 -12 -18 -25 40 -193 14 -40 26 -83 26 -95 0 -33 93 -176
174 -268 115 -130 132 -148 142 -148 5 0 37 -27 72 -60 34 -33 64 -59 67 -57
2 1 13 -6 24 -15 11 -9 22 -14 25 -11 3 3 12 1 19 -5 8 -7 16 -10 18 -7 3 2
23 -1 45 -7 l39 -12 -30 -7 c-29 -6 -29 -7 8 -8 26 -1 36 3 31 10 -4 7 0 9 12
6 19 -6 76 -18 104 -23 8 -2 29 -5 45 -8 17 -4 50 -9 75 -12 25 -3 52 -10 61
-15 9 -4 19 -6 22 -3 3 3 12 2 19 -2 9 -6 4 -11 -17 -15 -29 -6 -29 -7 8 -8
23 -1 36 3 32 9 -8 13 -4 13 85 -5 41 -9 89 -17 105 -20 17 -2 44 -7 60 -11
17 -3 39 -7 50 -9 11 -1 29 -4 40 -5 11 -2 0 -6 -25 -10 l-45 -7 48 -1 c26 -1
47 2 47 8 0 5 7 7 15 4 8 -4 12 -10 9 -15 -3 -5 0 -9 5 -9 6 0 11 4 11 9 0 6
8 8 18 6 10 -1 43 -6 74 -10 46 -6 56 -10 51 -24 -4 -13 -3 -13 5 -2 7 10 20
12 48 7 22 -4 86 -10 144 -12 103 -5 107 -5 225 36 66 23 125 43 130 45 6 1
21 7 35 12 14 6 28 9 33 6 4 -2 7 1 7 7 0 7 7 10 15 6 8 -3 15 -2 15 3 0 7 99
45 140 53 8 2 17 6 20 9 10 11 148 58 154 52 3 -4 6 -1 6 5 0 7 3 11 8 11 4
-1 10 0 15 1 4 1 10 3 15 5 4 1 24 9 45 19 21 9 42 14 46 11 5 -2 14 1 20 9
10 12 32 20 96 33 10 2 22 8 26 14 3 6 10 11 15 11 13 1 34 8 72 25 18 8 49
17 68 20 18 3 34 9 34 14 0 7 52 22 66 19 4 -1 10 2 13 7 7 10 128 54 151 55
8 1 17 4 20 8 8 11 248 100 270 100 11 0 20 4 20 8 0 8 72 36 95 37 6 0 27 9
49 19 21 10 44 19 50 20 6 1 16 5 22 8 14 9 95 38 122 44 13 3 36 12 50 22 14
9 29 16 32 16 3 -1 16 3 30 8 14 6 30 11 35 12 6 1 20 8 33 14 12 7 22 11 22
8 0 -3 24 6 53 19 29 14 61 26 72 28 11 2 42 14 69 26 27 12 56 23 65 25 9 2
30 9 46 15 17 7 35 14 40 16 6 1 24 8 42 15 18 6 35 11 39 10 4 -1 10 2 13 7
6 7 86 39 121 47 20 5 90 45 114 65 19 16 35 49 42 88 2 12 8 33 13 45 5 13 8
25 8 28 0 3 3 16 7 30 4 14 12 43 18 65 5 22 13 47 16 55 3 8 7 24 9 35 2 11
6 27 10 35 8 19 8 19 18 55 4 17 19 68 32 115 14 47 26 90 27 95 1 6 4 15 8
20 3 6 9 26 12 45 4 19 16 64 28 100 11 36 21 72 23 80 3 13 41 140 64 212 6
17 5 31 -3 39 -8 9 -8 10 0 6 15 -9 46 101 48 169 1 41 -4 57 -27 87 -31 41
-81 71 -103 63 -8 -3 -12 -2 -9 3 3 5 -5 12 -17 16 -71 19 -98 29 -99 39 0 6
-2 144 -5 306 -4 315 -6 345 -29 336 -8 -3 -14 0 -12 6 1 6 -41 26 -93 44 -52
19 -105 39 -117 45 -12 6 -31 9 -42 6 -12 -3 -19 -2 -16 3 7 12 -118 60 -129
49 -6 -5 -15 -9 -20 -9 -6 0 -4 4 4 10 12 8 12 10 -3 16 -10 3 -29 4 -42 2
-14 -3 -25 -1 -25 3 0 5 -33 9 -72 9 -40 0 -95 7 -122 15 -26 8 -52 12 -57 9
-5 -3 -9 -1 -9 3 0 9 -93 46 -121 48 -8 0 -32 9 -52 18 -20 10 -50 19 -66 20
-16 1 -27 5 -25 9 2 4 -6 8 -18 10 -17 2 -24 11 -28 33 -5 29 -11 32 -155 80
-83 28 -153 54 -156 59 -4 5 -11 6 -17 2 -6 -3 -13 -2 -17 4 -3 5 -14 10 -24
10 -10 0 -46 11 -80 25 -35 15 -84 30 -110 35 -40 8 -53 5 -98 -17 -29 -15
-49 -31 -46 -37 3 -6 3 -8 -1 -4 -4 3 -28 -2 -53 -13 -53 -23 -68 -21 -151 12
-13 5 -28 7 -33 4 -5 -4 -9 -2 -9 3 0 9 -326 122 -351 122 -6 0 -25 6 -42 14
-65 30 -110 46 -126 45 -9 0 -37 -12 -63 -28z m118 -43 c3 -5 8 -123 11 -262
l6 -253 -32 -22 c-23 -17 -32 -19 -35 -9 -11 31 -12 558 -1 561 14 5 44 -4 51
-15z m-96 -86 c1 -48 0 -100 -1 -117 -1 -16 -2 -44 -2 -62 0 -18 -4 -30 -9
-27 -5 3 -8 73 -7 155 1 158 17 200 19 51z m195 60 l50 -18 3 -191 3 -191 -43
-26 c-23 -14 -46 -22 -49 -18 -6 6 -22 462 -17 462 2 0 26 -8 53 -18z m-253
-267 c3 -177 8 -277 15 -290 10 -17 7 -24 -25 -52 -40 -35 -51 -40 -53 -20 -1
6 -4 140 -8 297 -6 277 -5 286 14 302 11 10 26 17 33 18 6 0 12 5 12 12 0 6 2
9 4 7 2 -2 6 -125 8 -274z m418 211 l45 -13 3 -162 3 -161 -26 0 c-14 0 -25 5
-25 11 0 6 -8 8 -19 4 -10 -3 -26 -3 -35 1 -14 5 -16 27 -16 163 0 87 3 161 7
164 8 9 11 9 63 -7z m648 -40 c19 -7 22 -14 22 -67 0 -37 4 -59 11 -59 8 0 8
-4 -1 -15 -8 -10 -11 -47 -8 -120 l4 -107 -23 5 c-16 3 -23 0 -23 -11 0 -11
-7 -13 -30 -8 -16 3 -30 2 -30 -3 0 -10 77 -24 90 -16 9 5 24 -234 18 -305 -2
-34 -7 -44 -18 -41 -8 2 -23 4 -32 5 -10 0 -18 4 -18 8 0 4 -9 8 -19 8 -11 0
-22 4 -25 8 -4 8 -8 295 -4 343 1 10 8 15 19 12 9 -3 20 0 24 6 3 6 3 11 -2
10 -23 -5 -43 15 -43 45 0 24 -3 27 -10 16 -11 -17 -11 -17 -12 65 -1 73 11
85 14 14 l2 -54 3 48 c3 30 -1 55 -9 65 -10 12 -10 14 0 8 9 -5 12 6 12 48 0
30 -4 58 -10 61 -5 3 -10 12 -10 18 0 7 4 6 10 -3 6 -10 10 -11 10 -2 0 19 -4
27 -13 24 -5 -1 -5 2 -2 8 4 7 19 8 37 5 24 -6 29 -4 24 6 -4 8 -2 7 6 -2 7
-9 23 -19 36 -23z m-1190 -103 c2 -71 5 -136 8 -147 4 -10 0 -22 -7 -27 -9 -6
-10 -9 -2 -9 8 0 10 -13 7 -37 -3 -31 -2 -34 6 -18 8 16 9 13 4 -15 -3 -19 -8
-44 -10 -55 -5 -17 -3 -18 6 -5 9 12 10 9 5 -13 -3 -16 -6 -58 -6 -95 -1 -60
-4 -69 -28 -92 -15 -14 -31 -34 -35 -45 -17 -47 -24 24 -31 320 l-6 310 38 27
c21 15 41 27 44 28 3 0 6 -57 7 -127z m682 103 c0 2 10 -2 23 -11 20 -12 23
-22 21 -58 -2 -23 -4 -46 -5 -52 -1 -5 0 -35 4 -65 3 -35 3 -46 -3 -30 -7 23
-8 24 -9 3 -1 -12 3 -25 9 -28 5 -3 9 -17 8 -30 -1 -13 -6 -21 -10 -19 -4 3
-8 -5 -8 -18 0 -19 2 -20 11 -8 9 13 10 13 6 0 -5 -20 -46 -25 -53 -6 -3 8
-12 12 -20 9 -20 -8 -22 6 -27 173 l-3 152 28 -9 c15 -4 28 -6 28 -3z m350
-180 c0 -174 -9 -226 -40 -223 -10 1 -18 6 -17 12 1 5 -2 9 -8 8 -6 -1 -10 61
-10 167 l-1 168 26 16 c49 30 50 28 50 -148z m312 139 c18 5 20 4 8 -4 -10 -7
-11 -11 -2 -11 7 0 12 -13 12 -30 0 -16 7 -33 15 -38 13 -7 14 -13 5 -38 -8
-19 -11 -126 -11 -323 1 -161 -2 -297 -5 -303 -4 -5 -10 -5 -17 0 -7 5 -29 12
-49 16 l-38 7 0 329 c0 320 -1 329 -19 325 -14 -2 -18 1 -14 10 2 8 10 13 16
12 7 -1 13 11 14 28 0 17 2 33 2 37 1 3 14 0 31 -8 17 -9 40 -13 52 -9z m-487
-4 c3 -5 1 -12 -5 -16 -5 -3 -10 1 -10 9 0 18 6 21 15 7z m-70 -151 c0 -113
-3 -150 -12 -150 -10 0 -13 30 -13 119 0 118 7 181 19 181 4 0 7 -67 6 -150z
m-916 -97 c1 -131 4 -273 7 -316 l6 -77 -38 -36 -39 -35 -6 43 c-11 72 -19
592 -10 606 8 13 60 50 72 51 3 1 6 -106 8 -236z m1218 205 c-3 -7 -5 -2 -5
12 0 14 2 19 5 13 2 -7 2 -19 0 -25z m-178 -143 l2 -165 -33 7 c-18 3 -34 6
-35 7 -2 2 -5 130 -4 194 1 56 4 66 31 92 17 17 32 30 34 30 3 0 5 -74 5 -165z
m593 101 c2 -11 9 -20 16 -18 6 1 12 -2 12 -8 0 -5 -6 -10 -14 -10 -13 0 -14
-17 -16 -541 l0 -116 -45 10 -45 10 -1 311 c-1 171 -2 336 -3 367 l-1 56 47
-20 c32 -13 48 -26 50 -41z m125 -23 c18 -7 23 -323 5 -341 -10 -11 -16 -11
-27 -2 -7 6 -19 10 -27 9 -39 -5 -39 -4 -38 186 l2 185 36 -16 c20 -9 42 -18
49 -21z m-1887 -115 c0 -73 3 -217 7 -319 l6 -186 -24 -24 -24 -24 -6 56 c-3
31 -8 182 -10 335 -3 220 -1 278 9 277 6 -2 12 2 12 7 0 6 7 10 15 10 13 0 15
-21 15 -132z m1497 65 c-3 -10 -5 -2 -5 17 0 19 2 27 5 18 2 -10 2 -26 0 -35z
m-1592 -293 c5 -168 8 -313 7 -323 -1 -20 -44 -59 -53 -49 -4 4 -9 152 -12
330 l-6 322 27 14 c15 8 28 14 28 13 1 -1 5 -139 9 -307z m535 173 c0 -71 -4
-122 -9 -115 -12 20 -14 242 -2 242 7 0 11 -44 11 -127z m1586 64 c6 -20 8
-59 5 -149 -1 -36 -1 -36 -31 -25 -23 9 -30 18 -30 39 0 15 -8 31 -17 37 -14
8 -15 12 -5 19 7 5 12 13 11 18 -1 5 2 18 6 28 6 13 5 21 -3 24 -8 2 -8 8 0
21 14 23 55 16 64 -12z m83 -9 c6 10 10 8 14 -8 3 -12 10 -19 16 -15 7 3 11
-3 12 -17 9 -168 9 -166 -11 -171 -11 -3 -23 -1 -26 4 -3 5 -15 7 -28 5 -19
-3 -22 0 -23 33 -1 32 -1 33 7 11 7 -19 8 -14 7 25 -2 28 -6 56 -10 63 -5 6
-4 12 1 12 5 0 8 10 7 23 -1 12 0 28 3 35 4 11 6 11 13 0 8 -11 10 -11 18 0z
m-2300 -380 c1 -223 -1 -258 -14 -258 -8 0 -15 -4 -15 -8 0 -5 -11 -14 -25
-20 -22 -10 -25 -9 -29 11 -7 34 -15 593 -9 616 3 12 9 21 14 21 13 0 11 -37
-1 -45 -7 -5 -8 -11 -1 -19 5 -6 12 -90 15 -185 4 -95 9 -177 12 -182 20 -33
24 6 17 174 -8 225 -8 243 9 261 19 21 25 -62 27 -366z m2415 348 c-3 -8 3
-19 15 -26 16 -8 21 -8 21 2 0 7 9 3 18 -10 14 -18 18 -38 15 -90 -2 -37 -5
-78 -8 -90 -5 -21 -8 -22 -22 -10 -9 7 -18 12 -20 11 -10 -8 -33 -2 -28 7 3 6
2 10 -2 10 -5 0 -9 15 -9 33 -1 17 -4 50 -8 72 -6 31 -5 37 4 25 9 -12 11 -10
7 12 -3 21 -1 25 12 20 14 -5 14 -3 3 11 -8 9 -11 21 -7 27 9 15 15 12 9 -4z
m-716 -31 c-3 -3 -9 2 -12 12 -6 14 -5 15 5 6 7 -7 10 -15 7 -18z m-609 -31
c12 -12 13 -35 12 -161 -1 -65 -5 -103 -12 -103 -5 0 -8 3 -6 8 3 4 -13 7 -35
8 -22 1 -44 7 -49 15 -5 8 -9 66 -9 129 l0 116 45 -1 c25 -1 49 -5 54 -11z
m748 -126 c-2 -29 -3 -8 -3 47 0 55 1 79 3 53 2 -26 2 -71 0 -100z m901 128
c22 1 22 0 22 -136 l0 -138 -25 2 c-14 0 -27 7 -30 14 -2 6 -11 12 -19 12 -13
0 -15 18 -15 107 1 115 11 161 32 146 6 -5 22 -8 35 -7z m-152 -35 c7 -13 13
-18 15 -12 2 6 4 -28 4 -76 0 -49 -4 -87 -8 -85 -4 1 -20 5 -36 8 l-29 6 -1
85 c-1 47 1 89 4 93 9 15 40 3 51 -19z m230 8 c3 -6 14 -9 24 -6 14 3 17 1 13
-11 -4 -10 -2 -13 5 -8 9 5 12 -27 12 -126 0 -127 -1 -134 -20 -134 -11 0 -20
4 -20 8 0 4 -6 8 -14 8 -19 0 -22 19 -25 158 -2 114 4 144 25 111z m-1945
-116 c2 -146 1 -142 19 -153 21 -13 -3 -52 -50 -79 -53 -29 -61 -27 -59 17 1
20 -2 89 -6 152 -7 110 -6 116 14 134 22 20 60 43 74 45 4 1 8 -52 8 -116z
m330 106 l38 -12 -3 -119 c-2 -65 -5 -121 -8 -123 -2 -2 -23 1 -46 7 l-42 10
0 124 c0 135 -2 131 61 113z m1450 -36 c-12 -20 -14 -14 -5 12 4 9 9 14 11 11
3 -2 0 -13 -6 -23z m273 -4 c-3 -5 1 -6 9 -3 7 2 26 0 40 -5 l27 -11 0 -129 0
-130 -34 2 c-19 1 -32 5 -30 8 2 4 -3 10 -12 13 -12 5 -15 27 -13 135 0 71 -2
135 -7 143 -6 10 -4 10 9 -1 9 -7 14 -17 11 -22z m-1604 0 c24 -5 48 -15 52
-22 11 -18 10 -156 -2 -199 l-10 -36 -30 15 c-16 8 -35 11 -41 7 -7 -4 -9 -3
-5 4 3 5 2 12 -3 14 -6 1 -11 50 -12 108 -1 65 -6 108 -13 112 -16 11 10 10
64 -3z m-193 -21 c-3 -8 -6 -5 -6 6 -1 11 2 17 5 13 3 -3 4 -12 1 -19z m-390
-142 c3 -69 3 -131 0 -139 -4 -12 -13 -12 -56 1 l-51 16 0 93 c0 91 0 93 28
107 15 8 36 23 46 35 11 12 21 19 24 17 2 -3 6 -61 9 -130z m729 122 c7 -5 12
-51 13 -120 2 -98 0 -110 -14 -104 -9 3 -23 6 -31 6 -11 0 -14 22 -14 113 0
101 2 114 18 114 9 0 22 -4 28 -9z m221 -40 c-2 -13 -4 -5 -4 17 -1 22 1 32 4
23 2 -10 2 -28 0 -40z m534 17 l30 -16 -5 -284 c-4 -244 -2 -284 10 -289 9 -3
12 -11 8 -17 -5 -8 -9 -8 -14 1 -6 9 -10 6 -15 -9 -3 -11 -15 -21 -25 -21 -10
0 -21 -4 -25 -10 -14 -22 -30 3 -30 47 0 28 -5 48 -12 51 -7 2 -13 8 -13 13 0
6 5 7 10 4 6 -3 10 2 10 12 0 10 2 36 5 58 4 32 3 35 -4 15 -9 -24 -9 -24 -10
7 -1 17 5 34 12 37 9 5 9 7 -2 12 -9 4 -10 9 -2 13 7 5 11 74 13 199 3 208 2
206 59 177z m861 -113 c-2 -70 -5 -128 -7 -130 -2 -2 -12 3 -24 10 -19 12 -21
22 -21 128 l0 116 28 2 27 2 -3 -128z m-1024 82 c-10 -10 -28 6 -28 24 0 15 1
15 17 -1 9 -9 14 -19 11 -23z m257 8 c-3 -3 -11 0 -18 7 -9 10 -8 11 6 5 10
-3 15 -9 12 -12z m202 -14 c-3 -7 -5 -2 -5 12 0 14 2 19 5 13 2 -7 2 -19 0
-25z m637 18 c19 -8 37 -20 41 -27 6 -8 4 -10 -5 -4 -9 6 -10 2 -4 -16 4 -13
7 -31 7 -39 0 -8 -2 -50 -4 -92 -2 -74 -7 -85 -34 -78 -5 2 -19 4 -30 5 -12 1
-20 9 -19 18 0 9 1 69 2 132 1 63 4 115 7 115 3 0 21 -6 39 -14z m-1757 -78
c-2 -18 -4 -6 -4 27 0 33 2 48 4 33 2 -15 2 -42 0 -60z m639 60 c6 -4 19 -6
30 -4 18 4 19 -3 16 -150 l-3 -154 -27 0 c-51 0 -53 7 -56 156 -1 77 -5 144
-9 151 -8 13 31 15 49 1z m322 -9 c2 6 8 11 14 11 7 0 7 -5 1 -12 -5 -7 -8
-19 -7 -25 1 -7 2 -18 3 -24 0 -6 8 -3 17 5 8 9 24 16 35 16 11 0 17 4 14 10
-3 6 1 7 9 4 9 -3 13 -10 10 -15 -3 -5 2 -9 10 -9 12 0 16 -12 17 -47 1 -27 4
-39 6 -28 3 11 10 23 17 27 8 5 7 14 -3 30 -13 22 -13 22 5 6 11 -9 32 -18 49
-21 25 -3 31 -9 37 -41 4 -20 6 -68 5 -106 -2 -38 0 -67 5 -64 4 3 8 -1 8 -10
0 -8 -6 -17 -12 -19 -10 -4 -9 -8 2 -16 10 -8 12 -13 4 -18 -6 -5 -12 -49 -13
-108 -1 -54 -3 -100 -4 -102 -6 -5 -76 -10 -75 -4 0 3 0 68 -1 144 -1 94 -5
137 -12 137 -7 0 -9 -11 -6 -29 4 -16 3 -31 -2 -33 -5 -2 -11 -52 -15 -112 -4
-61 -8 -111 -9 -112 -1 0 -19 -4 -39 -7 -36 -5 -38 -4 -38 20 0 20 -4 24 -17
19 -16 -5 -16 -5 0 8 16 12 17 18 6 38 -7 13 -12 24 -11 26 6 8 1 32 -6 28 -5
-3 -8 -35 -7 -72 1 -70 -8 -83 -57 -80 -17 1 -18 17 -22 186 -2 102 -1 237 2
301 l5 117 36 -15 c24 -10 36 -12 39 -4z m-1231 -46 c-3 -10 -5 -2 -5 17 0 19
2 27 5 18 2 -10 2 -26 0 -35z m-545 -37 c4 -51 -3 -81 -17 -81 -14 0 -85 35
-85 41 0 24 65 84 91 84 4 0 9 -20 11 -44z m1963 26 c-3 -3 -11 0 -18 7 -9 10
-8 11 6 5 10 -3 15 -9 12 -12z m-708 -59 c-2 -16 -4 -5 -4 22 0 28 2 40 4 28
2 -13 2 -35 0 -50z m-320 25 c-3 -8 -6 -5 -6 6 -1 11 2 17 5 13 3 -3 4 -12 1
-19z m622 15 c0 -5 -4 -17 -9 -28 -8 -17 -8 -16 -7 8 1 15 5 27 9 27 4 0 8 -3
7 -7z m597 -56 l39 -14 5 -162 c3 -90 2 -168 -2 -175 -5 -7 -8 -5 -8 7 0 9 -1
17 -2 17 -2 1 -21 3 -43 6 -40 6 -90 44 -68 51 8 3 10 37 7 111 -3 59 -7 112
-9 119 -2 6 0 13 4 15 5 2 12 14 16 27 4 14 3 21 -2 18 -5 -4 -10 0 -10 8 0
13 3 13 17 0 9 -8 34 -21 56 -28z m-1639 27 c-3 -3 -12 -4 -19 -1 -8 3 -5 6 6
6 11 1 17 -2 13 -5z m590 -56 c-2 -13 -4 -3 -4 22 0 25 2 35 4 23 2 -13 2 -33
0 -45z m-625 42 c10 0 19 -12 23 -32 4 -18 12 -39 17 -45 6 -7 6 -13 1 -13
-13 0 -15 -30 -16 -352 l-2 -297 -36 -14 -37 -15 -1 347 c0 190 -4 366 -7 390
-7 43 -6 44 17 38 13 -4 32 -7 41 -7z m108 -9 c0 -5 14 -11 30 -14 17 -4 30
-11 30 -17 0 -7 -6 -8 -19 0 -11 5 -29 10 -40 10 -12 0 -21 5 -21 11 0 5 -5 7
-12 3 -7 -4 -8 -3 -4 4 8 14 36 16 36 3z m116 -34 c4 -4 -5 -7 -19 -7 -15 0
-27 4 -27 10 0 11 35 8 46 -3z m-83 -13 c37 -6 38 -7 36 -48 0 -22 -1 -131 -1
-241 -1 -294 -1 -295 -9 -295 -4 0 -5 -8 -2 -18 6 -24 -24 -48 -69 -56 l-38
-7 0 213 c-1 117 -2 268 -3 335 -3 123 1 135 33 128 8 -2 32 -7 53 -11z m127
6 c0 -5 -4 -10 -10 -10 -5 0 -10 5 -10 10 0 6 5 10 10 10 6 0 10 -4 10 -10z
m807 -47 c-3 -10 -5 -2 -5 17 0 19 2 27 5 18 2 -10 2 -26 0 -35z m682 -148
c-1 -107 -5 -193 -9 -190 -4 2 -6 88 -6 190 1 115 -3 187 -9 189 -5 3 -2 5 8
5 17 1 18 -12 16 -194z m81 176 c12 -12 15 -48 16 -193 l1 -178 -33 0 -34 0
-1 133 c0 72 -4 158 -8 189 -4 31 -3 54 1 52 4 -3 8 -1 8 4 0 14 33 9 50 -7z
m-2407 -13 c9 -5 18 -5 19 -1 1 4 5 -93 8 -217 5 -223 4 -252 -9 -231 -4 6
-26 12 -49 13 l-43 1 1 229 1 228 27 -6 c15 -4 35 -11 45 -16z m833 -8 c35 0
64 -12 64 -26 0 -8 7 -17 16 -21 9 -3 12 -8 5 -12 -6 -4 -11 -92 -14 -232 -4
-234 -10 -268 -47 -270 -11 -1 -26 -2 -32 -3 -7 -1 -16 -5 -20 -11 -22 -29
-28 38 -27 314 0 280 1 292 18 277 10 -9 26 -16 37 -16z m70 12 c1 -7 0 -8 -2
-3 -3 5 -14 7 -24 4 -11 -3 -20 -1 -20 4 0 15 43 10 46 -5z m59 -12 c3 -5 12
-7 20 -3 8 3 15 1 15 -5 0 -6 -8 -9 -17 -7 -10 2 -24 4 -30 4 -7 1 -13 6 -13
11 0 13 17 13 25 0z m-880 -11 c-4 -6 -1 -10 6 -8 8 1 26 1 42 0 l27 -1 0
-359 0 -359 -27 -4 c-16 -3 -35 -7 -43 -9 -13 -3 -15 42 -18 359 -3 342 -1
392 13 392 4 0 3 -5 0 -11z m2429 -9 c41 0 54 -21 59 -90 4 -48 8 -64 18 -62
10 2 9 -1 -2 -10 -13 -11 -15 -30 -12 -101 l3 -88 -52 5 c-28 4 -53 8 -56 10
-6 7 -2 338 5 350 4 6 8 6 11 -2 2 -7 14 -12 26 -12z m-2652 -62 c2 -40 5
-231 6 -424 l3 -350 -34 -11 -33 -10 -2 296 c-1 163 -5 347 -8 409 l-7 112 29
25 c16 14 32 25 36 25 3 0 8 -33 10 -72z m625 -15 c-2 -16 -4 -3 -4 27 0 30 2
43 4 28 2 -16 2 -40 0 -55z m523 51 c0 -8 6 -14 13 -14 8 0 7 -4 -3 -10 -11
-7 -12 -10 -2 -10 11 0 12 -10 7 -42 -5 -30 -4 -40 3 -33 6 6 13 33 15 60 2
28 4 -10 5 -82 2 -109 -1 -133 -12 -133 -9 0 -12 -7 -9 -20 3 -10 0 -57 -7
-103 -11 -83 -12 -84 -45 -94 l-33 -10 -1 256 -2 257 36 -4 c21 -3 35 -10 35
-18z m94 11 c3 -8 1 -15 -4 -15 -6 0 -10 7 -10 15 0 8 2 15 4 15 2 0 6 -7 10
-15z m1576 -45 c16 -13 19 -33 22 -143 2 -70 -1 -127 -5 -127 -4 0 -7 -8 -5
-17 2 -11 -2 -17 -10 -15 -7 1 -23 4 -35 6 -21 3 -22 9 -29 147 -8 155 -6 174
17 165 10 -4 15 1 16 17 1 20 2 20 6 2 3 -11 13 -27 23 -35z m-2399 18 c15 -6
16 -28 12 -210 -4 -160 -3 -201 7 -191 7 7 11 29 9 57 -3 25 -1 46 3 46 5 0 8
-27 8 -60 0 -49 -3 -60 -16 -60 -15 0 -16 -15 -10 -145 7 -159 9 -155 -53
-134 l-31 11 0 348 0 349 23 3 c12 2 24 1 27 -3 3 -3 12 -8 21 -11z m904 2 c3
-5 -1 -10 -10 -10 -9 0 -13 5 -10 10 3 6 8 10 10 10 2 0 7 -4 10 -10z m61 -22
c-16 -9 -36 -3 -36 11 0 5 12 6 26 3 22 -4 24 -6 10 -14z m-838 -10 c2 -4 10
-8 18 -8 12 0 14 -37 14 -217 0 -159 3 -214 11 -203 9 12 9 11 2 -5 -4 -11 -9
-54 -10 -95 -1 -41 -2 -81 -2 -87 -1 -7 -22 -24 -49 -37 l-47 -24 -3 99 -4 99
47 0 c71 0 55 23 -32 46 -9 2 -12 60 -12 228 l0 225 32 -6 c18 -3 34 -10 35
-15z m732 13 c23 -6 25 -11 26 -79 1 -79 3 -85 28 -76 12 5 16 20 16 69 l0 64
30 -9 c35 -10 35 -10 55 -10 13 0 15 -25 15 -165 l0 -164 -32 -6 c-60 -11 -91
-10 -95 3 -3 6 2 12 11 12 13 0 16 12 16 60 0 33 -4 60 -9 60 -4 0 -7 18 -6
39 2 29 -1 38 -11 34 -7 -2 -10 -11 -7 -19 3 -8 0 -14 -7 -14 -10 0 -10 -3 0
-15 10 -12 10 -15 -1 -16 -8 0 -4 -4 9 -9 20 -9 23 -16 21 -59 -2 -28 -7 -47
-12 -44 -5 3 -7 14 -4 24 3 11 1 19 -3 19 -14 0 -22 -57 -11 -78 7 -13 7 -19
-2 -19 -7 0 -31 -5 -54 -11 l-43 -10 0 214 0 214 23 -1 c12 -1 33 -4 47 -8z
m-1389 -369 c1 -264 4 -362 13 -363 8 0 8 -2 -1 -5 -8 -4 -10 -20 -7 -47 5
-43 -1 -50 -67 -85 -3 -1 -6 109 -7 245 -2 137 -5 323 -8 414 l-6 166 39 20
c21 11 39 20 40 19 1 -1 3 -165 4 -364z m166 336 c-3 -7 -5 -2 -5 12 0 14 2
19 5 13 2 -7 2 -19 0 -25z m1393 22 c8 -5 12 -12 8 -15 -9 -9 -48 4 -48 16 0
12 21 11 40 -1z m-1961 -235 c1 -129 -3 -225 -8 -225 -16 0 -21 29 -21 118 -1
48 -5 132 -10 187 -7 82 -6 104 6 123 8 12 18 22 23 22 4 0 9 -101 10 -225z
m2078 203 c76 -26 66 -36 -18 -18 -37 8 -59 18 -59 26 0 18 1 18 77 -8z
m-1370 -50 c-2 -13 -4 -3 -4 22 0 25 2 35 4 23 2 -13 2 -33 0 -45z m260 -95
c-2 -32 -3 -8 -3 52 0 61 1 87 3 58 2 -29 2 -78 0 -110z m1131 106 c22 -9 23
-12 21 -134 -1 -139 2 -132 -79 -140 l-40 -4 0 150 0 150 38 -7 c20 -4 47 -11
60 -15z m136 -6 c5 -11 2 -13 -10 -9 -8 3 -27 6 -40 6 -13 0 -24 6 -24 13 0
18 67 9 74 -10z m423 5 c-3 -8 -6 -5 -6 6 -1 11 2 17 5 13 3 -3 4 -12 1 -19z
m-2751 -24 c2 -10 5 -35 8 -54 3 -19 7 -104 11 -188 5 -151 5 -154 -17 -172
-13 -10 -26 -16 -29 -14 -3 2 -7 59 -8 126 -2 68 -6 165 -10 216 -5 78 -4 95
9 102 21 13 33 7 36 -16z m372 9 c0 -10 3 -192 7 -405 l8 -386 -33 -17 c-17
-9 -33 -15 -35 -13 -2 2 -5 184 -7 405 -3 393 -3 402 17 417 27 21 44 20 43
-1z m1939 -9 c20 -6 22 -13 25 -110 l3 -104 -34 -10 c-19 -5 -38 -7 -43 -4 -4
3 -8 57 -8 120 0 123 0 123 57 108z m-2053 -39 c-11 -9 -13 -13 -4 -10 13 4
15 -17 17 -147 6 -375 4 -631 -7 -642 -5 -5 -10 -6 -10 -1 0 5 -7 -1 -16 -13
-14 -21 -42 -33 -30 -13 4 5 2 11 -3 13 -13 5 -22 745 -9 777 10 24 11 25 18
6 4 -11 8 -166 9 -345 1 -218 5 -328 13 -335 7 -7 9 90 4 346 -6 357 -4 379
28 379 5 0 1 -7 -10 -15z m403 -102 c-2 -21 -4 -6 -4 32 0 39 2 55 4 38 2 -18
2 -50 0 -70z m-844 -160 l6 -212 -31 -15 c-17 -9 -34 -13 -37 -10 -3 3 -6 107
-6 232 l0 227 23 -2 c16 -2 21 1 16 10 -4 6 0 5 8 -3 13 -12 17 -56 21 -227z
m984 195 c-3 -8 -6 -5 -6 6 -1 11 2 17 5 13 3 -3 4 -12 1 -19z m2210 2 c13 0
24 -4 24 -10 6 -53 6 -53 -53 -54 -54 -1 -57 0 -61 27 -4 33 -1 37 30 37 16 0
22 4 17 13 -6 10 -4 10 7 0 7 -7 23 -13 36 -13z m-3354 -143 c4 -78 7 -189 7
-247 0 -95 -2 -106 -20 -118 -12 -7 -25 -10 -29 -8 -5 3 -9 101 -10 217 -1
116 -4 222 -7 234 -7 26 24 75 42 68 7 -2 13 -57 17 -146z m24 121 c-3 -7 -5
-2 -5 12 0 14 2 19 5 13 2 -7 2 -19 0 -25z m2110 -75 c-2 -16 -4 -5 -4 22 0
28 2 40 4 28 2 -13 2 -35 0 -50z m-727 47 c0 -5 -2 -10 -4 -10 -3 0 -8 5 -11
10 -3 6 -1 10 4 10 6 0 11 -4 11 -10z m-1508 -72 c0 -35 2 -74 3 -88 3 -29 8
-320 6 -336 -1 -11 -71 -48 -78 -40 -3 2 -4 70 -4 150 1 129 -1 146 -16 155
-10 6 -12 11 -5 11 8 0 12 23 12 81 0 82 4 93 45 117 32 19 35 15 37 -50z
m595 40 c-3 -8 -6 -5 -6 6 -1 11 2 17 5 13 3 -3 4 -12 1 -19z m2830 -13 c0 -8
-4 -12 -9 -9 -4 3 -8 9 -8 15 0 5 4 9 8 9 5 0 9 -7 9 -15z m-194 -25 c53 1
485 -11 517 -14 19 -2 52 -7 73 -11 25 -5 42 -3 52 5 9 7 15 8 15 2 0 -8 17
-16 65 -28 6 -1 19 -5 30 -9 16 -6 17 -5 5 4 -14 10 -13 11 18 11 4 0 7 -6 7
-12 0 -7 5 -13 12 -13 6 0 15 -3 19 -7 4 -4 14 -2 22 5 13 9 14 9 8 0 -5 -9 1
-13 20 -13 21 0 25 -3 17 -11 -9 -9 -6 -17 9 -33 16 -17 19 -30 15 -66 -5 -42
-4 -43 9 -20 l15 25 -7 -25 c-4 -14 -13 -29 -20 -33 -17 -10 -19 -30 -1 -22 6
4 1 -3 -12 -14 -13 -12 -21 -21 -18 -21 4 0 -1 -19 -9 -42 -8 -23 -12 -48 -10
-55 3 -7 0 -13 -6 -13 -7 0 -9 -15 -5 -42 4 -27 2 -37 -4 -27 -8 13 -10 12
-13 -10 0 -5 -4 -13 -8 -17 -5 -4 -8 -18 -8 -31 0 -13 -7 -37 -15 -53 -9 -17
-13 -30 -10 -30 3 0 1 -9 -5 -20 -8 -15 -8 -20 2 -21 9 0 9 -2 1 -5 -7 -3 -10
-20 -8 -42 3 -28 2 -32 -5 -17 -5 11 -10 16 -11 10 -1 -5 -3 -14 -4 -20 -1 -5
-5 -17 -8 -25 -3 -8 -11 -33 -17 -55 -6 -22 -19 -57 -28 -78 -12 -31 -13 -43
-4 -58 17 -26 15 -37 -2 -14 -13 18 -14 18 -21 -6 -4 -13 -8 -36 -7 -51 0 -16
-3 -28 -8 -28 -14 0 -20 -44 -7 -52 9 -6 9 -8 -1 -8 -15 0 -28 -31 -36 -85 -4
-22 -12 -43 -19 -47 -8 -5 -6 -8 7 -8 19 0 19 -1 2 -13 -10 -7 -20 -29 -22
-47 -2 -19 -10 -41 -18 -49 -12 -12 -21 -10 -63 13 -76 43 -250 95 -291 87 -8
-1 -20 3 -27 9 -9 7 -27 9 -45 5 -17 -4 -30 -2 -30 3 0 5 -30 13 -67 16 -79 8
-123 23 -123 42 0 21 -28 5 -35 -19 -4 -12 -9 -30 -11 -39 -6 -21 21 -25 30
-5 3 6 3 1 0 -13 -8 -34 -24 -49 -25 -25 0 11 -6 2 -13 -20 -6 -22 -17 -40
-24 -39 -7 1 -21 2 -32 3 -17 1 -20 8 -21 59 0 49 -25 204 -28 177 -1 -5 -6
-3 -11 5 -12 18 -14 4 -11 -75 1 -27 -3 -78 -9 -112 -10 -49 -16 -62 -33 -67
-42 -11 -44 -8 -49 72 -5 86 -24 137 -40 109 -6 -12 -23 -17 -61 -18 -97 -1
-341 -31 -387 -48 -14 -5 -52 -14 -85 -21 -33 -6 -67 -13 -75 -15 -50 -11
-428 -148 -515 -186 -43 -19 -246 -102 -365 -150 -120 -48 -212 -86 -448 -183
-198 -82 -286 -117 -492 -197 -113 -44 -239 -94 -280 -111 -41 -17 -113 -45
-160 -63 -104 -40 -138 -55 -246 -105 -46 -22 -95 -40 -107 -40 -45 0 -207
139 -327 280 -30 35 -61 71 -68 78 -7 8 -26 41 -41 74 -23 47 -26 61 -15 65
20 7 17 30 -4 35 -13 4 -26 29 -43 84 -13 43 -23 85 -23 92 1 6 -2 12 -8 12
-5 0 -8 19 -6 42 3 40 6 44 62 75 73 41 95 47 149 39 49 -8 106 -54 126 -103
7 -18 17 -31 21 -28 4 3 10 -2 13 -10 8 -19 37 -9 185 61 62 30 116 54 120 54
5 0 33 12 63 28 84 42 109 52 109 43 0 -8 -7 -12 -160 -84 -112 -53 -221 -107
-421 -210 -81 -41 -153 -77 -160 -79 -11 -4 -11 -9 -3 -18 8 -8 17 -9 30 -2
51 27 95 42 106 36 6 -4 8 -3 5 3 -6 9 269 153 292 153 5 0 44 18 85 41 42 23
83 38 92 35 8 -3 12 -2 9 4 -3 5 27 24 67 43 138 65 253 119 328 154 75 35
372 178 443 214 21 10 44 19 51 19 7 0 24 8 37 18 13 10 51 28 84 41 33 13 67
29 75 35 8 7 51 27 95 46 95 40 288 131 295 139 3 3 17 12 33 20 50 26 94 81
117 144 12 34 29 82 37 106 18 49 70 113 111 134 120 64 188 96 211 102 32 8
53 24 45 36 -3 5 2 6 10 3 15 -6 251 65 288 86 10 6 30 10 45 10 16 0 50 7 78
15 27 9 72 20 100 24 27 5 97 19 155 30 58 12 121 23 140 25 88 9 209 29 206
35 -2 3 24 5 57 4 44 -2 56 0 42 6 -13 6 -3 8 33 4 28 -3 52 -2 52 3 0 5 34 9
76 8 70 -1 77 1 82 20 5 18 7 18 10 4 2 -11 12 -18 25 -18z m-2627 -65 c2 -36
-1 -63 -5 -61 -4 3 -9 36 -10 73 -1 37 1 64 5 60 4 -4 8 -36 10 -72z m-746 33
c1 -7 4 -74 7 -148 4 -74 7 -180 7 -235 1 -91 -1 -100 -17 -98 -10 0 -16 -2
-13 -5 3 -3 -8 -14 -25 -24 -17 -11 -34 -17 -37 -14 -3 4 0 6 6 6 8 0 9 7 2
25 -5 14 -10 122 -10 241 l-1 216 28 24 c31 26 53 31 53 12z m1258 -13 c-3 -3
-9 2 -12 12 -6 14 -5 15 5 6 7 -7 10 -15 7 -18z m2829 19 c-3 -3 -12 -4 -19
-1 -8 3 -5 6 6 6 11 1 17 -2 13 -5z m-2747 -43 l25 -1 0 -150 0 -150 -38 -19
c-70 -36 -72 -31 -69 147 1 86 4 163 7 169 2 7 15 11 27 9 13 -3 34 -5 48 -5z
m467 -13 c-3 -8 -6 -5 -6 6 -1 11 2 17 5 13 3 -3 4 -12 1 -19z m-1933 -20 c-6
-8 -7 -108 -3 -253 7 -210 6 -242 -8 -257 -9 -10 -16 -37 -17 -60 -1 -24 -3
-70 -4 -104 -2 -54 -5 -62 -27 -72 -23 -11 -25 -9 -26 13 -1 14 -3 37 -4 53
-2 23 -7 608 -6 639 1 6 21 19 46 30 25 10 45 22 45 27 0 5 3 6 6 3 4 -4 3
-12 -2 -19z m303 -30 c-3 -7 -5 -2 -5 12 0 14 2 19 5 13 2 -7 2 -19 0 -25z
m4120 -9 c1 -12 1 -20 0 -18 -2 2 -9 12 -16 22 -11 14 -11 17 1 17 7 0 14 -10
15 -21z m-4563 -362 c4 -181 9 -341 12 -355 2 -15 1 -31 -3 -37 -10 -13 -68
-45 -81 -45 -6 0 -10 34 -11 78 0 42 -3 201 -7 353 l-7 276 44 30 c24 16 45
29 45 29 1 -1 4 -149 8 -329z m945 286 c2 -27 7 -148 14 -361 2 -65 0 -106 -7
-111 -13 -11 -383 -197 -546 -274 -87 -42 -215 -97 -226 -97 -2 0 -3 40 -7
217 l-3 193 27 26 c24 23 92 64 159 97 14 6 27 15 30 18 3 4 30 18 60 32 30
14 66 35 79 46 13 12 30 21 38 21 7 0 13 3 13 8 0 4 15 13 33 21 17 8 43 22
57 31 14 10 75 43 135 74 61 32 117 64 125 72 8 8 15 14 15 14 1 0 2 -12 4
-27z m-642 -25 c-3 -7 -5 -2 -5 12 0 14 2 19 5 13 2 -7 2 -19 0 -25z m18 -34
c-3 -19 -10 -34 -15 -34 -6 0 -6 10 0 26 6 14 11 37 11 52 1 19 3 21 6 9 3
-11 2 -34 -2 -53z m-145 30 c0 -8 -5 -12 -10 -9 -6 4 -8 11 -5 16 9 14 15 11
15 -7z m-153 -126 c-3 -8 -6 -5 -6 6 -1 11 2 17 5 13 3 -3 4 -12 1 -19z m300
0 c-3 -8 -6 -5 -6 6 -1 11 2 17 5 13 3 -3 4 -12 1 -19z m1430 -15 c2 -5 -42
-34 -98 -63 l-101 -54 4 -58 c2 -32 6 -60 9 -63 7 -6 75 13 117 32 25 12 35
13 47 3 18 -15 10 -68 -14 -91 -22 -23 -170 -89 -176 -79 -9 14 -3 140 6 140
6 0 5 8 -1 19 -5 11 -10 38 -10 60 0 22 -5 43 -11 47 -8 5 -6 10 5 16 9 5 21
6 26 3 6 -4 9 -2 8 3 -3 11 161 102 176 98 6 -1 11 -7 13 -13z m2757 1 c3 -8
2 -12 -4 -9 -6 3 -10 10 -10 16 0 14 7 11 14 -7z m-3025 -257 c1 -111 -2 -147
-14 -163 -13 -17 -14 -4 -15 123 0 78 -4 144 -9 147 -15 10 -40 -5 -34 -20 3
-8 -1 -14 -10 -14 -8 0 -17 -4 -19 -8 -1 -4 -49 -28 -106 -54 l-103 -45 -4
-63 c-3 -34 -7 -71 -10 -81 -4 -11 -2 -19 3 -19 8 0 91 38 186 85 27 13 53 22
57 19 5 -3 9 -25 9 -50 l0 -45 -67 -30 c-38 -17 -96 -44 -130 -60 -34 -16 -65
-29 -68 -29 -4 0 -6 53 -5 118 2 64 2 123 1 129 -2 18 -49 -5 -55 -26 -7 -21
-8 -148 -2 -186 6 -36 -2 -75 -16 -75 -6 0 -9 40 -8 98 3 138 2 142 -16 142
-22 0 -162 -70 -167 -84 -2 -6 -3 -24 -2 -41 1 -16 3 -47 3 -67 l2 -38 58 21
c31 12 63 26 69 31 16 13 26 -10 21 -47 -2 -19 -14 -33 -38 -46 -49 -26 -123
-59 -126 -56 -1 1 -4 57 -5 125 -2 128 -8 142 -43 103 -19 -21 -60 -36 -88
-32 -10 1 -18 -4 -18 -12 0 -7 -20 -23 -44 -35 l-44 -22 2 -125 c2 -68 -1
-122 -6 -119 -4 3 -8 57 -8 120 0 67 -4 114 -10 114 -13 0 -89 -40 -95 -51 -3
-5 -24 -13 -47 -20 -68 -18 -72 -27 -78 -167 l-5 -124 -58 -23 c-32 -13 -64
-22 -70 -19 -14 5 -43 196 -32 213 4 7 -5 9 -27 5 l-33 -7 40 31 c22 18 45 32
50 32 6 0 39 14 73 30 35 17 69 27 74 23 6 -3 8 -1 5 4 -8 12 40 34 77 37 13
0 23 4 21 7 -7 10 56 41 70 35 8 -3 14 -2 12 3 -1 5 43 31 97 59 82 42 102 49
115 39 12 -10 14 -9 8 5 -5 13 17 27 106 71 62 30 130 63 152 72 22 9 49 22
60 28 11 6 61 30 110 55 50 24 124 61 165 82 41 21 78 39 82 39 4 1 7 -63 7
-142z m-81 -18 c3 -23 -3 -29 -38 -43 -52 -21 -69 -20 -65 2 2 9 4 20 4 23 1
4 15 12 31 19 17 7 30 17 30 22 0 22 35 1 38 -23z m362 17 c0 -3 -4 -8 -10
-11 -5 -3 -10 -1 -10 4 0 6 5 11 10 11 6 0 10 -2 10 -4z m-554 -91 c-3 -8 -2
-15 3 -15 5 0 14 7 21 15 7 8 20 15 29 15 10 -1 2 -13 -24 -35 -43 -37 -65
-44 -65 -20 0 8 4 15 9 15 5 0 11 9 14 20 3 11 8 20 12 20 4 0 5 -7 1 -15z
m410 -56 c-27 -11 -51 -17 -54 -15 -2 3 6 9 19 14 13 5 31 12 39 15 42 15 38
3 -4 -14z m-106 -49 c-41 -28 -50 -31 -50 -15 0 9 4 14 8 11 4 -2 14 -1 22 5
20 12 39 11 20 -1z m-110 -51 c-30 -20 -110 -59 -122 -59 -16 0 23 29 40 30 8
0 25 9 39 20 14 11 33 20 42 20 14 0 14 -2 1 -11z m-596 -55 c11 -28 7 -33
-41 -55 -27 -12 -50 -23 -53 -23 -3 -1 -11 -5 -19 -10 -11 -7 -13 -5 -8 8 4
10 7 25 7 35 0 11 17 25 48 38 59 26 59 26 66 7z m-706 -78 c3 -51 0 -82 -9
-92 -18 -22 -26 -3 -34 84 -5 58 -4 77 7 83 26 17 33 2 36 -75z m59 12 c-2
-13 -4 -3 -4 22 0 25 2 35 4 23 2 -13 2 -33 0 -45z m-197 48 c0 -2 -7 -6 -15
-10 -8 -3 -15 -1 -15 4 0 6 7 10 15 10 8 0 15 -2 15 -4z m1270 -1 c0 -3 -32
-20 -71 -39 -77 -37 -78 -29 -2 15 45 27 73 36 73 24z m-1204 -92 c9 -58 8
-70 -5 -80 -14 -10 -17 -3 -24 55 -4 37 -5 72 -3 79 11 29 22 9 32 -54z m784
-8 c0 -37 -17 -51 -101 -80 l-39 -14 0 28 c0 15 6 34 13 43 15 20 109 68 120
61 4 -2 7 -20 7 -38z m-255 -5 c0 -13 -87 -69 -107 -70 -19 0 -5 41 20 58 49
34 87 40 87 12z m326 -65 c-165 -81 -221 -104 -221 -91 0 11 357 173 385 175
6 0 -68 -38 -164 -84z m-318 -16 c3 -12 3 -35 0 -50 -4 -23 -16 -32 -69 -53
-35 -14 -66 -26 -69 -26 -11 0 -4 67 8 82 11 14 102 66 118 68 4 0 9 -10 12
-21z m-413 -9 c0 -12 -123 -70 -146 -70 -8 0 -14 5 -14 10 0 6 4 10 9 10 5 0
22 5 38 12 15 6 31 11 36 10 4 -1 7 3 7 10 0 6 3 8 6 5 4 -3 16 0 28 8 24 18
36 19 36 5z m49 -144 c1 -67 -2 -85 -14 -90 -12 -4 -15 4 -15 42 0 70 12 155
20 142 4 -6 8 -48 9 -94z m-224 65 c-3 -6 -8 -67 -10 -137 -4 -120 -13 -153
-36 -139 -7 5 -10 266 -2 278 2 4 15 7 29 7 14 0 23 -4 19 -9z m670 -1 c-7
-12 -228 -120 -244 -120 -7 0 -23 -7 -36 -16 -14 -9 -25 -12 -25 -7 0 10 202
113 222 113 7 0 27 9 43 20 33 22 50 26 40 10z m2543 4 c15 -4 22 -14 22 -30
0 -13 -3 -24 -7 -24 -5 0 -57 -4 -118 -10 -280 -25 -545 -96 -935 -250 -30
-12 -79 -30 -107 -41 -29 -10 -82 -32 -118 -49 -36 -16 -69 -30 -73 -30 -4 0
-38 -13 -77 -30 -38 -16 -146 -59 -240 -96 -93 -36 -183 -72 -200 -79 -50 -21
-248 -101 -285 -115 -19 -7 -53 -20 -75 -30 -22 -10 -71 -29 -110 -43 -76 -28
-95 -35 -320 -121 -82 -31 -159 -61 -170 -65 -252 -106 -379 -125 -170 -25 51
24 100 44 109 44 9 0 16 4 16 9 0 5 14 11 30 15 17 3 68 21 113 39 45 19 118
48 162 65 189 73 363 142 408 162 27 12 76 32 110 45 58 22 110 43 352 145 55
23 118 48 140 55 22 8 96 38 165 68 69 30 136 57 150 62 29 8 103 40 142 61
14 8 35 14 45 14 10 0 27 6 38 13 11 7 61 28 110 46 50 18 105 39 123 47 18 8
41 14 50 14 10 0 22 4 28 8 24 22 356 106 391 99 12 -2 20 0 17 4 -5 8 16 13
43 10 6 -1 14 3 18 9 7 11 184 14 223 4z m-3070 -32 c3 -18 -5 -26 -40 -41
-48 -21 -58 -19 -58 10 0 12 14 26 38 38 45 23 56 21 60 -7z m3627 4 c17 -3
59 -11 95 -17 146 -25 241 -60 293 -107 32 -30 32 -33 8 -60 -24 -29 -38 -28
-106 8 -31 17 -67 30 -79 30 -12 0 -26 4 -31 9 -10 10 -53 21 -90 24 -11 1
-26 8 -33 15 -8 7 -18 10 -23 6 -5 -3 -24 -1 -42 5 -17 6 -52 12 -77 14 -25 2
-52 7 -60 10 -8 3 -24 7 -35 9 -21 3 -31 29 -21 53 4 12 23 14 88 11 46 -3 97
-7 113 -10z m-3616 -131 c1 -26 -6 -33 -51 -55 -29 -14 -56 -26 -60 -28 -4 -2
-8 19 -8 46 l0 50 53 25 c58 27 65 23 66 -38z"/>
<path d="M2172 3275 c0 -16 2 -22 5 -12 2 9 2 23 0 30 -3 6 -5 -1 -5 -18z"/>
<path d="M4583 3350 c0 -36 2 -50 4 -32 2 17 2 47 0 65 -2 17 -4 3 -4 -33z"/>
<path d="M4701 3314 c0 -11 3 -14 6 -6 3 7 2 16 -1 19 -3 4 -6 -2 -5 -13z"/>
<path d="M4708 3263 c7 -3 16 -2 19 1 4 3 -2 6 -13 5 -11 0 -14 -3 -6 -6z"/>
<path d="M4715 3230 c3 -5 8 -10 11 -10 2 0 4 5 4 10 0 6 -5 10 -11 10 -5 0
-7 -4 -4 -10z"/>
<path d="M4583 3175 c0 -22 2 -30 4 -17 2 12 2 30 0 40 -3 9 -5 -1 -4 -23z"/>
<path d="M3737 3023 c-4 -3 -7 -13 -7 -22 1 -13 3 -13 11 2 11 19 8 33 -4 20z"/>
<path d="M3877 2930 c3 -11 9 -20 14 -20 11 0 11 3 3 24 -9 23 -23 20 -17 -4z"/>
<path d="M4725 2700 c-7 -23 15 -61 35 -59 8 1 24 -2 34 -6 13 -6 21 -4 24 3
2 7 8 10 13 6 12 -7 12 33 -1 56 -14 26 -97 26 -105 0z"/>
<path d="M4415 2694 c-10 -10 -13 -20 -7 -22 5 -1 8 -11 5 -22 -6 -22 24 -41
56 -35 16 3 21 -1 22 -18 1 -14 6 -6 14 21 16 48 11 74 -14 70 -9 -2 -15 3
-13 10 3 15 -14 16 -24 1 -5 -8 -9 -8 -14 1 -5 8 -12 7 -25 -6z"/>
<path d="M5384 2692 c3 -5 27 -9 53 -9 41 -1 44 0 18 7 -42 11 -77 12 -71 2z"/>
<path d="M5349 2688 c-16 -54 -16 -100 -1 -106 10 -3 13 5 10 29 -2 21 3 38
11 45 14 11 8 34 -10 34 -5 0 -9 -1 -10 -2z"/>
<path d="M5500 2679 c0 -5 9 -9 20 -9 11 0 20 2 20 4 0 2 -9 6 -20 9 -11 3
-20 1 -20 -4z"/>
<path d="M5168 2672 c-19 -4 -30 -34 -25 -67 4 -24 46 -33 59 -13 7 10 12 9
25 -7 13 -16 15 -17 10 -2 -4 9 -2 17 3 17 5 0 7 7 3 16 -5 13 -7 13 -14 2 -7
-10 -9 -9 -9 5 0 9 5 17 11 17 5 0 7 5 4 10 -3 6 -15 10 -25 10 -10 0 -20 4
-22 8 -1 4 -11 6 -20 4z"/>
<path d="M5452 2614 c-14 -10 -14 -16 -4 -38 6 -14 20 -26 29 -26 14 0 15 2 5
9 -10 6 -7 10 12 15 14 3 26 13 26 21 0 8 1 18 3 23 4 12 -53 9 -71 -4z"/>
<path d="M4795 2611 c-6 -11 9 -23 19 -14 9 9 7 23 -3 23 -6 0 -12 -4 -16 -9z"/>
<path d="M5335 2542 c0 -24 4 -28 20 -25 17 4 18 3 5 -7 -13 -10 -12 -11 4 -6
11 4 22 2 26 -4 4 -7 25 -13 46 -15 21 -1 30 0 20 2 -16 4 -17 7 -5 15 10 7 7
8 -13 5 -15 -2 -25 0 -22 4 2 4 -12 11 -32 15 -28 5 -35 10 -31 25 3 11 0 19
-7 19 -6 0 -12 -13 -11 -28z"/>
<path d="M5185 2529 c-11 -4 -15 -8 -10 -8 6 -1 3 -6 -5 -11 -11 -7 -1 -10 35
-10 28 0 56 4 63 9 19 12 -58 30 -83 20z"/>
<path d="M5045 2522 c-3 -3 -5 -12 -5 -21 0 -11 3 -12 8 -4 4 6 21 13 37 15
l30 3 -33 6 c-17 3 -34 3 -37 1z"/>
<path d="M5032 2440 c0 -14 2 -19 5 -12 2 6 2 18 0 25 -3 6 -5 1 -5 -13z"/>
<path d="M5259 2394 c-11 -14 -10 -18 5 -30 17 -12 17 -14 2 -29 -21 -21 -20
-39 1 -56 15 -12 16 -12 11 8 -4 14 1 32 13 47 22 28 24 47 7 64 -16 16 -23
15 -39 -4z"/>
<path d="M3685 2390 c-7 -12 2 -12 30 0 19 8 19 9 -2 9 -12 1 -25 -3 -28 -9z"/>
<path d="M3547 2318 c-51 -50 -50 -58 1 -10 7 6 18 12 23 12 6 0 7 5 4 10 -3
6 1 10 9 10 8 0 20 9 26 20 18 34 0 22 -63 -42z"/>
<path d="M3868 2363 c57 -45 81 -73 105 -124 18 -38 26 -47 26 -31 1 12 -3 22
-9 22 -5 0 -9 3 -8 8 6 29 -48 93 -107 127 -30 17 -30 17 -7 -2z"/>
<path d="M3701 2323 c0 -11 3 -13 6 -5 2 6 9 12 14 12 5 0 4 -11 -3 -24 -8
-20 -7 -28 5 -40 20 -20 32 -4 17 23 -5 11 -7 27 -4 35 4 12 0 16 -15 16 -14
0 -21 -6 -20 -17z"/>
<path d="M3754 2323 c-14 -23 2 -63 25 -63 9 0 3 -7 -13 -15 -15 -8 -33 -12
-39 -8 -6 4 -7 1 -3 -6 5 -7 15 -10 25 -7 13 5 13 3 -2 -8 -12 -10 -15 -16 -7
-21 6 -4 24 7 39 24 15 17 32 31 38 31 5 0 18 9 29 21 18 20 18 21 0 34 -10 8
-24 11 -32 8 -8 -3 -14 0 -14 7 0 6 -4 8 -10 5 -5 -3 -10 -1 -10 4 0 17 -14
13 -26 -6z m23 -19 c-3 -3 -12 -4 -19 -1 -8 3 -5 6 6 6 11 1 17 -2 13 -5z"/>
<path d="M5005 2319 c-4 -6 2 -17 14 -25 12 -8 21 -23 21 -32 0 -14 2 -14 9
-3 5 8 3 24 -8 42 -17 31 -26 35 -36 18z"/>
<path d="M3602 2288 c-18 -19 -30 -37 -27 -41 3 -4 2 -5 -2 -2 -9 7 -33 -15
-33 -30 0 -13 30 -27 85 -41 59 -14 65 -14 65 2 0 8 -3 13 -7 11 -5 -3 -8 7
-9 21 -1 15 -10 46 -20 70 l-19 43 -33 -33z m35 -38 c-1 -20 -9 -25 -20 -13
-4 3 -2 12 4 20 15 18 18 17 16 -7z m-30 -26 c-3 -3 -12 -4 -19 -1 -8 3 -5 6
6 6 11 1 17 -2 13 -5z"/>
<path d="M5070 2261 c0 -6 7 -7 17 -4 10 4 14 2 10 -4 -3 -5 1 -10 9 -10 8 0
13 5 11 11 -5 14 -47 21 -47 7z"/>
<path d="M5320 2249 c0 -5 18 -9 40 -9 22 0 40 4 40 9 0 4 -18 8 -40 8 -22 0
-40 -4 -40 -8z"/>
<path d="M3860 2218 c-19 -18 -34 -35 -33 -38 1 -3 -5 -4 -13 -4 -13 2 -13 -1
0 -20 8 -12 23 -20 35 -19 12 2 21 -2 21 -7 0 -14 -44 -12 -58 2 -8 8 -12 8
-12 1 0 -6 13 -16 29 -21 22 -8 32 -7 45 6 8 9 19 13 23 9 3 -4 -2 -14 -13
-23 -10 -8 -14 -13 -7 -10 6 4 13 2 15 -3 1 -4 13 -11 24 -15 39 -12 42 53 7
137 -9 20 -19 37 -22 37 -3 0 -22 -15 -41 -32z m0 -48 c-13 -9 -13 -10 0 -10
12 -1 11 -3 -3 -11 -25 -15 -45 1 -22 18 11 7 24 13 29 13 6 0 4 -5 -4 -10z"/>
<path d="M3470 2204 c-24 -62 5 -253 37 -247 7 2 10 -4 7 -12 -12 -31 87 -97
161 -108 42 -7 115 8 115 22 0 4 -28 9 -62 10 -35 1 -82 9 -105 19 -51 20
-121 95 -139 147 -13 39 -13 162 0 183 4 7 5 12 1 12 -3 0 -10 -12 -15 -26z"/>
<path d="M3998 2145 c2 -19 9 -38 15 -42 7 -4 8 5 3 28 -9 46 -23 57 -18 14z"/>
<path d="M3510 2140 c0 -11 7 -23 15 -26 8 -4 13 -9 10 -13 -2 -4 2 -19 10
-34 9 -19 10 -29 3 -33 -6 -4 -8 -2 -4 4 3 6 1 14 -5 17 -7 5 -10 1 -7 -10 4
-25 22 -29 41 -10 9 8 19 15 23 15 10 0 65 63 59 68 -2 3 -14 -6 -25 -19 l-20
-24 10 27 c9 26 8 27 -16 18 -37 -14 -43 -12 -14 6 24 14 24 15 3 11 -13 -3
-23 -1 -23 4 0 4 -7 6 -15 3 -8 -4 -15 -1 -15 5 0 6 -7 11 -15 11 -8 0 -15 -9
-15 -20z m54 -56 c3 -8 2 -12 -4 -9 -6 3 -10 10 -10 16 0 14 7 11 14 -7z"/>
<path d="M3993 2083 c3 -12 2 -23 -2 -25 -3 -2 -15 -22 -27 -45 -21 -43 -85
-103 -111 -103 -8 0 -12 -4 -8 -9 3 -5 0 -13 -6 -17 -6 -3 -15 -1 -19 6 -6 9
-10 6 -15 -9 -4 -13 -4 -25 -1 -28 3 -4 6 -1 6 5 0 6 7 9 15 6 8 -4 15 -1 15
6 0 6 5 8 10 5 6 -3 10 1 10 10 0 9 5 13 11 9 11 -6 109 82 109 99 0 5 7 24
16 42 12 26 13 38 4 52 -10 16 -11 16 -7 -4z"/>
<path d="M3768 2045 c2 -14 9 -25 14 -25 6 0 8 -7 4 -15 -3 -9 1 -15 11 -15
12 0 13 -3 4 -14 -8 -10 -8 -16 2 -24 9 -8 21 -3 46 19 19 16 37 29 41 29 4 0
10 6 13 14 4 11 -11 20 -56 35 -79 27 -85 27 -79 -4z"/>
<path d="M3699 2054 c-1 -5 -1 -13 0 -17 1 -5 -3 -6 -9 -2 -5 3 -13 -1 -16 -9
-3 -9 -9 -14 -14 -11 -4 2 -19 -8 -34 -23 l-26 -28 53 -22 c59 -25 87 -28 87
-9 0 6 -7 36 -14 66 -14 52 -25 74 -27 55z"/>
<path d="M4674 1766 c-9 -20 -9 -23 2 -19 8 3 14 14 14 24 0 25 -3 24 -16 -5z"/>
<path d="M730 1402 c-13 -9 -21 -11 -16 -4 4 6 2 12 -3 12 -13 0 -15 -37 -2
-42 5 -1 3 -14 -4 -28 l-14 -25 -1 27 c0 25 -1 26 -30 15 -16 -6 -25 -14 -20
-17 5 -3 8 -15 6 -26 -5 -24 20 -80 38 -87 6 -3 31 5 55 16 l43 20 -3 66 c-4
99 -7 102 -49 73z"/>
<path d="M2798 2453 c7 -3 16 -2 19 1 4 3 -2 6 -13 5 -11 0 -14 -3 -6 -6z"/>
<path d="M1860 1999 c0 -5 5 -7 10 -4 6 3 10 8 10 11 0 2 -4 4 -10 4 -5 0 -10
-5 -10 -11z"/>
<path d="M1445 1790 c3 -5 -17 -19 -44 -31 -54 -23 -60 -38 -52 -121 3 -33 7
-38 28 -38 14 0 38 8 54 17 26 16 29 22 29 73 0 30 3 65 6 76 4 14 0 23 -11
28 -9 3 -13 2 -10 -4z"/>
<path d="M5079 1513 c-13 -16 -12 -17 4 -4 9 7 17 15 17 17 0 8 -8 3 -21 -13z"/>
<path d="M5482 3440 c0 -14 2 -19 5 -12 2 6 2 18 0 25 -3 6 -5 1 -5 -13z"/>
<path d="M5483 3150 c0 -25 2 -35 4 -22 2 12 2 32 0 45 -2 12 -4 2 -4 -23z"/>
<path d="M5721 2564 c0 -11 3 -14 6 -6 3 7 2 16 -1 19 -3 4 -6 -2 -5 -13z"/>
<path d="M5711 2518 c0 -16 -5 -28 -9 -28 -4 0 -13 -18 -19 -40 -5 -22 -9 -40
-7 -40 9 0 44 98 41 115 -3 14 -5 13 -6 -7z"/>
<path d="M5606 2184 c-4 -19 -9 -43 -12 -52 -6 -23 22 37 30 66 4 12 3 22 -2
22 -5 0 -13 -16 -16 -36z"/>
<path d="M5571 2064 c0 -11 3 -14 6 -6 3 7 2 16 -1 19 -3 4 -6 -2 -5 -13z"/>
<path d="M5562 2010 c0 -14 2 -19 5 -12 2 6 2 18 0 25 -3 6 -5 1 -5 -13z"/>
<path d="M5526 1904 c-4 -19 -10 -43 -13 -52 -3 -9 -3 -14 1 -10 12 10 36 98
27 98 -5 0 -12 -16 -15 -36z"/>
<path d="M5481 1734 c0 -11 3 -14 6 -6 3 7 2 16 -1 19 -3 4 -6 -2 -5 -13z"/>
<path d="M5471 1684 c0 -11 3 -14 6 -6 3 7 2 16 -1 19 -3 4 -6 -2 -5 -13z"/>
<path d="M5451 1642 c-6 -12 -11 -27 -11 -34 1 -7 8 0 16 15 9 16 13 31 11 34
-3 2 -10 -4 -16 -15z"/>
<path d="M5431 1574 c0 -11 3 -14 6 -6 3 7 2 16 -1 19 -3 4 -6 -2 -5 -13z"/>
<path d="M5390 1407 c0 -27 -59 -84 -100 -96 -51 -15 -49 -25 2 -11 38 11 108
79 108 105 0 8 -2 15 -5 15 -3 0 -5 -6 -5 -13z"/>
<path d="M5175 1264 c-27 -13 -57 -24 -65 -24 -8 0 -26 -8 -40 -16 -17 -11
-19 -13 -5 -9 11 4 40 13 65 21 46 15 123 53 105 53 -5 0 -32 -11 -60 -25z"/>
<path d="M4952 1183 c-40 -14 -72 -27 -70 -29 5 -5 120 30 144 44 28 16 9 12
-74 -15z"/>
<path d="M4810 1125 c-14 -8 -20 -14 -15 -14 6 0 21 6 35 14 14 8 21 14 15 14
-5 0 -21 -6 -35 -14z"/>
<path d="M4730 1100 c-11 -8 -7 -9 15 -4 37 8 45 14 19 14 -10 0 -26 -5 -34
-10z"/>
<path d="M4650 1065 c-14 -8 -34 -15 -45 -15 -11 0 -31 -8 -45 -16 -14 -8 -17
-13 -8 -10 9 3 34 10 55 16 39 11 96 39 78 39 -5 0 -21 -6 -35 -14z"/>
<path d="M4475 999 c-22 -10 -49 -19 -60 -19 -11 0 -33 -8 -50 -17 -16 -9 -57
-27 -90 -40 -33 -13 -46 -21 -30 -18 17 3 59 19 94 36 35 16 71 29 80 29 9 0
39 11 66 24 28 14 46 24 40 24 -5 0 -28 -8 -50 -19z"/>
<path d="M223 913 c9 -2 23 -2 30 0 6 3 -1 5 -18 5 -16 0 -22 -2 -12 -5z"/>
<path d="M4180 890 c-8 -5 -10 -10 -5 -10 6 0 17 5 25 10 8 5 11 10 5 10 -5 0
-17 -5 -25 -10z"/>
<path d="M4078 855 c-25 -7 -54 -18 -65 -25 -17 -11 -17 -11 2 -5 11 4 38 11
59 17 22 5 46 13 55 18 20 12 7 11 -51 -5z"/>
<path d="M3955 808 c-11 -7 -42 -20 -70 -30 -39 -14 -42 -17 -15 -12 34 6 135
53 115 53 -5 0 -19 -5 -30 -11z"/>
<path d="M3765 738 c-88 -36 -93 -39 -55 -32 19 4 55 17 80 30 55 28 43 29
-25 2z"/>
<path d="M3647 694 c-3 -3 -34 -17 -69 -30 -35 -12 -54 -23 -43 -23 21 -1 148
57 129 58 -6 1 -13 -2 -17 -5z"/>
<path d="M3435 614 c-27 -13 -39 -21 -26 -18 35 9 108 44 91 43 -8 0 -37 -12
-65 -25z"/>
<path d="M3295 564 c-27 -13 -74 -31 -102 -40 -55 -16 -74 -29 -25 -18 46 11
218 84 197 83 -11 0 -42 -12 -70 -25z"/>
<path d="M3075 479 c-22 -10 -49 -19 -60 -19 -11 0 -27 -5 -35 -11 -26 -18 51
1 105 26 28 13 46 23 40 23 -5 0 -28 -8 -50 -19z"/>
<path d="M2930 430 c-8 -5 -10 -10 -5 -10 6 0 17 5 25 10 8 5 11 10 5 10 -5 0
-17 -5 -25 -10z"/>
<path d="M2855 400 c-27 -11 -42 -19 -32 -20 20 0 87 26 87 34 0 4 -1 6 -2 5
-2 0 -25 -9 -53 -19z"/>
<path d="M1488 393 c6 -2 18 -2 25 0 6 3 1 5 -13 5 -14 0 -19 -2 -12 -5z"/>
<path d="M2770 370 c-8 -5 -10 -10 -5 -10 6 0 17 5 25 10 8 5 11 10 5 10 -5 0
-17 -5 -25 -10z"/>
<path d="M2700 340 c-8 -5 -10 -10 -5 -10 6 0 17 5 25 10 8 5 11 10 5 10 -5 0
-17 -5 -25 -10z"/>
<path d="M2608 314 c-16 -8 -28 -17 -28 -20 0 -3 5 -2 11 2 7 4 30 13 53 20
31 9 35 13 16 13 -14 0 -37 -7 -52 -15z"/>
<path d="M2520 278 c-14 -6 -65 -14 -115 -18 l-90 -7 80 -1 c55 0 96 5 130 18
28 10 43 19 35 19 -8 0 -26 -5 -40 -11z"/>
<path d="M2248 263 c12 -2 30 -2 40 0 9 3 -1 5 -23 4 -22 0 -30 -2 -17 -4z"/>
</g>
</svg>
